<svg id="Layer_1_copy_2" data-name="Layer 1 copy 2" xmlns="http://www.w3.org/2000/svg" viewBox="0 0 29.7 29.7"><defs><style>.cls-1{fill:#83cd29;}</style></defs><title>_01_languages logos [Recovered]</title><path class="cls-1" d="M14.82,1.33a2.08,2.08,0,0,0-1,.25L3.86,7.31a2.09,2.09,0,0,0-1,1.81V20.56a2.09,2.09,0,0,0,1,1.81l2.59,1.5a4.24,4.24,0,0,0,2.3.61c1.86,0,2.93-1.13,2.93-3.1V10.09a.28.28,0,0,0-.29-.27H10.14a.28.28,0,0,0-.29.27V21.38c0,.87-.91,1.75-2.38,1l-2.7-1.58a.3.3,0,0,1-.17-.25V9.12a.33.33,0,0,1,.17-.27l9.9-5.71a.29.29,0,0,1,.29,0l9.9,5.71a.34.34,0,0,1,.17.27V20.56a.32.32,0,0,1-.15.27L15,26.55a.31.31,0,0,1-.29,0L12.12,25a.26.26,0,0,0-.25,0,6.56,6.56,0,0,1-1.5.67c-.16.06-.41.14.08.42l3.33,2a2.08,2.08,0,0,0,2.06,0l9.92-5.71a2.1,2.1,0,0,0,1-1.81V9.12a2.09,2.09,0,0,0-1-1.81L15.85,1.58a2.07,2.07,0,0,0-1-.25Z"/><path class="cls-1" d="M17.4,9.6c-2.8,0-4.46,1.19-4.46,3.17,0,2.15,1.65,2.74,4.34,3,3.21.31,3.46.79,3.46,1.42,0,1.1-.87,1.56-2.94,1.56-2.6,0-3.17-.65-3.36-1.94a.28.28,0,0,0-.27-.25H12.9a.3.3,0,0,0-.29.29c0,1.65.9,3.61,5.19,3.61,3.11,0,4.9-1.22,4.9-3.36S21.25,14.42,18.24,14s-3.34-.6-3.34-1.31.25-1.38,2.5-1.38c2,0,2.76.43,3.07,1.79a.29.29,0,0,0,.27.23H22a.31.31,0,0,0,.21-.1.27.27,0,0,0,.08-.21c-.2-2.34-1.76-3.44-4.9-3.44Z"/></svg>