<svg id="Layer_1_copy_4" data-name="Layer 1 copy 4" xmlns="http://www.w3.org/2000/svg" viewBox="0 0 29.7 29.7"><defs><style>.cls-1{fill:#a8b9cc;}</style></defs><title>_01_languages logos [Recovered]</title><path class="cls-1" d="M20,11.69s-.4-3.7-4.07-3.81-5.56,2.78-5.56,6.89,2.09,7.41,5.66,7.41,4-4.12,4-4.12l6.85.41A8.62,8.62,0,0,1,24.38,25a12.05,12.05,0,0,1-8.85,3.28c-2.46,0-5.87,0-9.16-3.34A12.89,12.89,0,0,1,2.52,15.1c0-3.22.63-7.49,4.54-10.73a12.25,12.25,0,0,1,8.06-3c11.27,0,12,10.4,12,10.4Z"/></svg>