<svg id="Layer_1_copy_3" data-name="Layer 1 copy 3" xmlns="http://www.w3.org/2000/svg" viewBox="0 0 29.7 29.7"><defs><style>.cls-1{fill:#639ad2;}</style></defs><title>_01_languages logos [Recovered]</title><polygon class="cls-1" points="21.25 12.75 20.19 12.75 20.19 14.38 18.56 14.38 18.56 15.45 20.19 15.45 20.19 17.08 21.25 17.08 21.25 15.45 22.89 15.45 22.89 14.38 21.25 14.38 21.25 12.75"/><polygon class="cls-1" points="26.63 14.38 26.63 12.75 25.57 12.75 25.57 14.38 23.93 14.38 23.93 15.45 25.57 15.45 25.57 17.08 26.63 17.08 26.63 15.45 28.26 15.45 28.26 14.38 26.63 14.38"/><path class="cls-1" d="M20.64,18l5.72,3.3a13.18,13.18,0,0,1-14.18,6.46,13.48,13.48,0,0,1-10.71-13,13.49,13.49,0,0,1,10.62-13A13.33,13.33,0,0,1,26.4,8.12c-.28.17-.55.36-.84.53-1.44.83-2.89,1.64-4.32,2.5-.48.29-.71.27-1.09-.21a6.26,6.26,0,0,0-6.75-2.54,6.18,6.18,0,0,0-4.94,5,6.45,6.45,0,0,0,3.77,7.35,6.61,6.61,0,0,0,8-2.27Z"/></svg>