<svg id="Layer_1_copy_3" data-name="Layer 1 copy 3" xmlns="http://www.w3.org/2000/svg" viewBox="0 0 29.7 29.7"><defs><style>.cls-1{fill:#68217a;}</style></defs><title>_01_languages logos [Recovered]</title><path class="cls-1" d="M19.54,18l-.35.48a6.23,6.23,0,0,1-7.56,2.14,6.07,6.07,0,0,1-3.55-6.93A5.82,5.82,0,0,1,12.72,9a5.89,5.89,0,0,1,6.35,2.39c.35.46.57.47,1,.2,1.34-.81,2.71-1.57,4.07-2.36.27-.16.53-.33.79-.5A12.56,12.56,0,0,0,11.49,2.66,12.71,12.71,0,0,0,1.48,15,12.7,12.7,0,0,0,11.57,27.24a12.42,12.42,0,0,0,13.36-6.09Z"/><path class="cls-1" d="M28.27,14.11V12.86h-1.1V11.64H25.93v1.23H24.16V11.64H22.91v1.23H21.65v1.25h1.26v1.76H21.65v1.25h1.26v1.14h1.25V17.12h1.77v1.14h1.25V17.12h1.1V15.87h-1.1V14.11Zm-2.34,1.76H24.16V14.11h1.77Z"/></svg>