<svg id="Layer_1_copy" data-name="Layer 1 copy" xmlns="http://www.w3.org/2000/svg" viewBox="0 0 29.7 29.7"><defs><style>.cls-1{fill:#f7df1e;}</style></defs><title>_01_languages logos</title><path class="cls-1" d="M1.43,1.42H28.27V28.26H1.43Z"/><path d="M8.49,23.85l2.05-1.24c.4.7.76,1.3,1.62,1.3s1.35-.32,1.35-1.59V13.74H16v8.61c0,2.61-1.53,3.8-3.77,3.8a3.92,3.92,0,0,1-3.78-2.31m8.92-.27,2.05-1.19a2.75,2.75,0,0,0,2.49,1.53c1,0,1.71-.52,1.71-1.24S23,21.5,21.82,21l-.63-.27c-1.82-.77-3-1.75-3-3.8a3.37,3.37,0,0,1,3.69-3.33,3.73,3.73,0,0,1,3.59,2l-2,1.26a1.72,1.72,0,0,0-1.62-1.08,1.1,1.1,0,0,0-1.21,1.08c0,.76.47,1.06,1.55,1.53l.63.27c2.14.92,3.35,1.86,3.35,4,0,2.27-1.78,3.51-4.18,3.51a4.85,4.85,0,0,1-4.59-2.58"/></svg>