<svg id="Layer_1_copy_6" data-name="Layer 1 copy 6" xmlns="http://www.w3.org/2000/svg" viewBox="0 0 29.7 29.7"><defs><style>.cls-1{fill:#5382a1;}.cls-2{fill:#f8981d;}</style></defs><title>_01_languages logos [Recovered]</title><path class="cls-1" d="M11.33,22.24s-1,.59.73.79a15.28,15.28,0,0,0,5.53-.23,9.62,9.62,0,0,0,1.47.72c-5.23,2.24-11.83-.13-7.72-1.28"/><path class="cls-1" d="M10.69,19.32s-1.14.85.6,1A21.56,21.56,0,0,0,18.42,20a3.17,3.17,0,0,0,1.1.67c-6.32,1.85-13.36.15-8.83-1.36"/><path class="cls-2" d="M16.07,14.36a2,2,0,0,1-.34,2.82s3.27-1.69,1.77-3.8-2.48-3,3.34-6.33c0,0-9.14,2.28-4.77,7.31"/><path class="cls-1" d="M23,24.41s.75.62-.83,1.1c-3,.91-12.55,1.19-15.2,0-1-.41.83-1,1.4-1.11a3.62,3.62,0,0,1,.92-.1c-1.06-.75-6.85,1.47-2.94,2.1,10.65,1.73,19.42-.78,16.66-2"/><path class="cls-1" d="M11.82,16.29S7,17.45,10.1,17.86a36.44,36.44,0,0,0,6.42-.07c2-.17,4-.53,4-.53a8.52,8.52,0,0,0-1.22.65c-4.93,1.3-14.44.69-11.7-.63a9.18,9.18,0,0,1,4.2-1"/><path class="cls-1" d="M20.52,21.16c5-2.6,2.69-5.1,1.08-4.77a3.75,3.75,0,0,0-.57.15.91.91,0,0,1,.43-.33c3.2-1.12,5.66,3.32-1,5.07a.44.44,0,0,0,.1-.13"/><path class="cls-2" d="M17.5,1.6s2.77,2.77-2.63,7c-4.33,3.42-1,5.37,0,7.6C12.34,14,10.48,12,11.73,10.08,13.55,7.34,18.62,6,17.5,1.6"/><path class="cls-1" d="M12.31,28.21c4.81.31,12.19-.17,12.36-2.45,0,0-.34.86-4,1.55a39.52,39.52,0,0,1-12.17.19s.61.51,3.77.71"/></svg>