<svg id="Layer_1_copy_4" data-name="Layer 1 copy 4" xmlns="http://www.w3.org/2000/svg" xmlns:xlink="http://www.w3.org/1999/xlink" viewBox="0 0 29.7 29.7"><defs><style>.cls-1{fill:url(#linear-gradient);}.cls-2{fill:url(#linear-gradient-2);}</style><linearGradient id="linear-gradient" x1="970.28" y1="2564.45" x2="996.58" y2="2541.82" gradientTransform="matrix(0.56, 0, 0, -0.57, -545.02, 1458.67)" gradientUnits="userSpaceOnUse"><stop offset="0" stop-color="#5a9fd4"/><stop offset="1" stop-color="#306998"/></linearGradient><linearGradient id="linear-gradient-2" x1="1006.58" y1="2528.08" x2="997.09" y2="2541.5" gradientTransform="matrix(0.56, 0, 0, -0.57, -545.02, 1458.67)" gradientUnits="userSpaceOnUse"><stop offset="0" stop-color="#ffd43b"/><stop offset="1" stop-color="#ffe873"/></linearGradient></defs><title>_01_languages logos [Recovered]</title><g id="g2303"><path id="path1948" class="cls-1" d="M14.64,1.26a18.88,18.88,0,0,0-3.14.27C8.73,2,8.22,3,8.22,4.91V7.38h6.56v1H5.9a4,4,0,0,0-4,3.28,12.08,12.08,0,0,0,0,6.57c.46,1.91,1.56,3.28,3.43,3.28H7.5v-3a4.15,4.15,0,0,1,4.08-4.06h6.48a3.29,3.29,0,0,0,3.28-3.31V4.91a3.65,3.65,0,0,0-3.28-3.39A20.63,20.63,0,0,0,14.64,1.26ZM11,3.26A1.24,1.24,0,1,1,9.81,4.51,1.24,1.24,0,0,1,11,3.26Z"/><path id="path1950" class="cls-2" d="M22.07,8.35V11A4.18,4.18,0,0,1,18,15.15h-6.5a3.34,3.34,0,0,0-3.28,3.31v6.2c0,1.77,1.55,2.8,3.28,3.31a11.06,11.06,0,0,0,6.56,0c1.65-.47,3.28-1.43,3.28-3.31V22.2H14.79v-.73h9.72c1.89,0,2.59-1.31,3.24-3.28a11,11,0,0,0,0-6.57c-.47-1.87-1.36-3.28-3.24-3.28ZM18.36,23.94a1.24,1.24,0,1,1-1.22,1.24A1.23,1.23,0,0,1,18.36,23.94Z"/></g></svg>